<svg width="200" height="200" viewBox="0 0 200 200" fill="none" xmlns="http://www.w3.org/2000/svg">
<rect width="200" height="200" fill="#1E1E1E"/>
<rect width="200" height="200" fill="url(#paint0_linear_0_1)"/>
<path d="M68.32 181C65.28 181 62.64 180.36 60.4 179.08C58.2133 177.747 56.5067 175.96 55.28 173.72C54.1067 171.427 53.52 168.867 53.52 166.04V125H61.2V167C61.2 169.08 61.84 170.813 63.12 172.2C64.4533 173.533 66.1867 174.2 68.32 174.2H83.36V181H68.32ZM91.8144 181V125H116.374C119.894 125 123.094 125.773 125.974 127.32C128.854 128.813 131.148 130.947 132.854 133.72C134.561 136.44 135.414 139.64 135.414 143.32C135.414 147.053 134.454 150.36 132.534 153.24C130.668 156.067 128.134 158.173 124.934 159.56L130.934 171.72C131.361 172.573 131.814 173.213 132.294 173.64C132.828 174.013 133.574 174.2 134.534 174.2H138.534V181H133.334C131.254 181 129.414 180.467 127.814 179.4C126.268 178.333 124.988 176.893 123.974 175.08L117.254 161.4C116.721 161.453 116.134 161.507 115.494 161.56C114.908 161.56 114.294 161.56 113.654 161.56H99.4944V181H91.8144ZM99.4944 154.76H115.334C117.628 154.76 119.708 154.307 121.574 153.4C123.494 152.493 124.988 151.187 126.054 149.48C127.174 147.773 127.734 145.72 127.734 143.32C127.734 140.867 127.174 138.787 126.054 137.08C124.934 135.373 123.441 134.067 121.574 133.16C119.708 132.253 117.654 131.8 115.414 131.8H99.4944V154.76ZM173.633 181C170.593 181 167.953 180.36 165.713 179.08C163.526 177.747 161.82 175.96 160.593 173.72C159.42 171.427 158.833 168.867 158.833 166.04V131.8H141.793V125H183.553V131.8H166.513V167C166.513 169.08 167.153 170.813 168.433 172.2C169.766 173.533 171.526 174.2 173.713 174.2H177.393V181H173.633Z" fill="white"/>
<defs>
<linearGradient id="paint0_linear_0_1" x1="0" y1="0" x2="200" y2="200" gradientUnits="userSpaceOnUse">
<stop stop-color="#00A1C5"/>
<stop offset="1" stop-color="#00596C"/>
</linearGradient>
</defs>
</svg>
